<svg width="19" height="19" viewBox="0 0 19 19" fill="none" xmlns="http://www.w3.org/2000/svg">
<path d="M17.204 6.81092C17.1035 6.74233 17.0253 6.64588 16.9789 6.53342C16.9326 6.42095 16.9201 6.29739 16.943 6.17792C16.9951 5.63139 16.9241 5.08014 16.7353 4.56462C16.5465 4.0491 16.2447 3.58241 15.8519 3.19879C15.4592 2.81516 14.9855 2.52435 14.4657 2.3477C13.9459 2.17105 13.3932 2.11303 12.848 2.17792C12.7569 2.2015 12.6607 2.19573 12.5731 2.16143C12.4855 2.12714 12.4109 2.06607 12.36 1.98692C12.0138 1.54097 11.5699 1.18038 11.0625 0.932886C10.5551 0.685397 9.99764 0.557605 9.43308 0.559344C8.86852 0.561082 8.31189 0.692305 7.806 0.942915C7.30011 1.19353 6.85846 1.55684 6.51501 2.00492C6.40241 2.11012 6.25411 2.16873 6.10001 2.16892C5.77101 2.19192 5.43701 2.14392 5.11101 2.17992C4.18336 2.32008 3.34302 2.80585 2.7586 3.53976C2.17418 4.27367 1.8889 5.20144 1.96001 6.13692C1.98682 6.27344 1.97265 6.41484 1.91926 6.54332C1.86588 6.67179 1.77567 6.78161 1.66001 6.85892C1.27038 7.18517 0.953359 7.58937 0.729346 8.04552C0.505333 8.50166 0.379287 8.99965 0.359319 9.50744C0.33935 10.0152 0.4259 10.5216 0.613401 10.9939C0.800902 11.4662 1.0852 11.8941 1.44801 12.2499C1.80701 12.5979 2.14801 12.8869 1.89701 13.4299C1.95301 13.7609 1.99101 14.0789 2.06201 14.3889C2.28546 15.2516 2.81363 16.0042 3.54892 16.5077C4.28421 17.0112 5.1769 17.2315 6.06201 17.1279C6.15819 17.1072 6.25843 17.1168 6.34889 17.1555C6.43935 17.1942 6.51557 17.26 6.56701 17.3439C6.92017 17.8025 7.37996 18.1679 7.90644 18.4084C8.43292 18.6489 9.01016 18.7572 9.58801 18.7239C10.1371 18.7142 10.6766 18.5791 11.1654 18.3288C11.6542 18.0785 12.0792 17.7197 12.408 17.2799C12.5038 17.186 12.631 17.1311 12.765 17.1259C13.2229 17.1197 13.6802 17.09 14.135 17.0369C14.9915 16.8388 15.7479 16.3388 16.2658 15.6284C16.7837 14.9181 17.0283 14.0449 16.955 13.1689C16.9248 13.0395 16.9334 12.904 16.9798 12.7795C17.0263 12.655 17.1084 12.5469 17.216 12.4689C17.6349 12.1256 17.9722 11.6934 18.2033 11.2035C18.4344 10.7136 18.5536 10.1785 18.5521 9.63686C18.5507 9.09523 18.4287 8.56071 18.195 8.07209C17.9613 7.58347 17.6218 7.153 17.201 6.81192M11.751 9.94292C11.013 10.6763 10.2693 11.4066 9.52001 12.1339C9.37579 12.3135 9.19311 12.4584 8.98542 12.558C8.77773 12.6576 8.55034 12.7093 8.32001 12.7093C8.08968 12.7093 7.86228 12.6576 7.6546 12.558C7.44691 12.4584 7.26422 12.3135 7.12001 12.1339C6.53101 11.5719 5.96001 10.9899 5.36001 10.4339C5.14001 10.2329 5.16001 10.0989 5.36001 9.91992C5.57186 9.72966 5.77222 9.52697 5.96001 9.31292C6.12501 9.12292 6.25401 9.13692 6.42601 9.30792C6.96301 9.84392 7.52001 10.3589 8.05001 10.8999C8.25001 11.0999 8.36701 11.0939 8.56401 10.8999C9.85201 9.62092 11.16 8.35892 12.44 7.08292C12.659 6.86592 12.788 6.84492 13.007 7.08292C13.2715 7.34389 13.5506 7.58962 13.843 7.81892C13.079 8.59792 12.421 9.27692 11.751 9.94492" fill="#036E8A"/>
</svg>
