<svg width="99" height="15" viewBox="0 0 99 15" fill="none" xmlns="http://www.w3.org/2000/svg">
<g id="Group 102">
<g id="Group 97">
<g id="Clip path group">
<mask id="mask0_1_482" style="mask-type:luminance" maskUnits="userSpaceOnUse" x="0" y="0" width="15" height="15">
<g id="clip-path-15">
<path id="Rectangle 71" d="M14.178 0.830078H0V14.4041H14.178V0.830078Z" fill="white"/>
</g>
</mask>
<g mask="url(#mask0_1_482)">
<g id="Group 96">
<path id="Path 147" d="M7.95799 1.46106L8.99999 4.68406C9.05958 4.86757 9.17578 5.02748 9.3319 5.14084C9.48802 5.25421 9.67605 5.3152 9.86899 5.31506H13.258C13.4513 5.31418 13.6399 5.37461 13.7967 5.48767C13.9535 5.60073 14.0704 5.76059 14.1307 5.94428C14.1909 6.12797 14.1913 6.32603 14.1319 6.50998C14.0725 6.69393 13.9563 6.85431 13.8 6.96806L11.058 8.96006C10.9018 9.07353 10.7856 9.23353 10.7259 9.41712C10.6663 9.60072 10.6663 9.79848 10.726 9.98207L11.773 13.2041C11.8339 13.3878 11.8348 13.5862 11.7757 13.7705C11.7166 13.9548 11.6005 14.1156 11.4441 14.2298C11.2877 14.3439 11.0992 14.4054 10.9056 14.4054C10.712 14.4055 10.5234 14.3441 10.367 14.2301L7.62599 12.2301C7.46994 12.1166 7.28194 12.0554 7.08899 12.0554C6.89603 12.0554 6.70804 12.1166 6.55199 12.2301L3.81099 14.2301C3.65467 14.3462 3.46535 14.4093 3.27063 14.4103C3.07591 14.4113 2.88597 14.3501 2.72848 14.2355C2.57099 14.121 2.45419 13.9592 2.3951 13.7737C2.33602 13.5881 2.33773 13.3886 2.39999 13.2041L3.45099 9.98207C3.51077 9.79858 3.51094 9.60089 3.45148 9.4173C3.39202 9.23372 3.27598 9.07366 3.11999 8.96006L0.377989 6.96806C0.222037 6.85456 0.10599 6.69464 0.0464567 6.51117C-0.0130764 6.32771 -0.0130434 6.13011 0.0465511 5.94667C0.106146 5.76322 0.222246 5.60333 0.378236 5.48988C0.534226 5.37643 0.722107 5.31524 0.914989 5.31506H4.29999C4.49297 5.31535 4.68106 5.25442 4.83721 5.14104C4.99337 5.02765 5.10953 4.86765 5.16899 4.68406L6.21999 1.46106C6.27976 1.27769 6.39601 1.11792 6.5521 1.00463C6.70819 0.891335 6.89612 0.830322 7.08899 0.830322C7.28186 0.830322 7.46979 0.891335 7.62588 1.00463C7.78197 1.11792 7.89822 1.27769 7.95799 1.46106Z" fill="#FF8000"/>
</g>
</g>
</g>
</g>
<g id="Group 99">
<g id="Clip path group_2">
<mask id="mask1_1_482" style="mask-type:luminance" maskUnits="userSpaceOnUse" x="42" y="0" width="15" height="15">
<g id="clip-path-15_2">
<path id="Rectangle 71_2" d="M56.178 0.830078H42V14.4041H56.178V0.830078Z" fill="white"/>
</g>
</mask>
<g mask="url(#mask1_1_482)">
<g id="Group 96_2">
<path id="Path 147_2" d="M49.958 1.46106L51 4.68406C51.0596 4.86757 51.1758 5.02748 51.3319 5.14084C51.488 5.25421 51.676 5.3152 51.869 5.31506H55.258C55.4513 5.31418 55.6399 5.37461 55.7967 5.48767C55.9535 5.60073 56.0704 5.76059 56.1307 5.94428C56.1909 6.12797 56.1913 6.32603 56.1319 6.50998C56.0725 6.69393 55.9563 6.85431 55.8 6.96806L53.058 8.96006C52.9018 9.07353 52.7856 9.23353 52.7259 9.41712C52.6663 9.60072 52.6663 9.79848 52.726 9.98207L53.773 13.2041C53.8339 13.3878 53.8348 13.5862 53.7757 13.7705C53.7166 13.9548 53.6005 14.1156 53.4441 14.2298C53.2877 14.3439 53.0992 14.4054 52.9056 14.4054C52.712 14.4055 52.5234 14.3441 52.367 14.2301L49.626 12.2301C49.4699 12.1166 49.2819 12.0554 49.089 12.0554C48.896 12.0554 48.708 12.1166 48.552 12.2301L45.811 14.2301C45.6547 14.3462 45.4654 14.4093 45.2706 14.4103C45.0759 14.4113 44.886 14.3501 44.7285 14.2355C44.571 14.121 44.4542 13.9592 44.3951 13.7737C44.336 13.5881 44.3377 13.3886 44.4 13.2041L45.451 9.98207C45.5108 9.79858 45.5109 9.60089 45.4515 9.4173C45.392 9.23372 45.276 9.07366 45.12 8.96006L42.378 6.96806C42.222 6.85456 42.106 6.69464 42.0465 6.51117C41.9869 6.32771 41.987 6.13011 42.0466 5.94667C42.1061 5.76322 42.2222 5.60333 42.3782 5.48988C42.5342 5.37643 42.7221 5.31524 42.915 5.31506H46.3C46.493 5.31535 46.6811 5.25442 46.8372 5.14104C46.9934 5.02765 47.1095 4.86765 47.169 4.68406L48.22 1.46106C48.2798 1.27769 48.396 1.11792 48.5521 1.00463C48.7082 0.891335 48.8961 0.830322 49.089 0.830322C49.2819 0.830322 49.4698 0.891335 49.6259 1.00463C49.782 1.11792 49.8982 1.27769 49.958 1.46106Z" fill="#FF8000"/>
</g>
</g>
</g>
</g>
<g id="Group 101">
<g id="Clip path group_3">
<mask id="mask2_1_482" style="mask-type:luminance" maskUnits="userSpaceOnUse" x="84" y="0" width="15" height="15">
<g id="clip-path-15_3">
<path id="Rectangle 71_3" d="M98.178 0.830078H84V14.4041H98.178V0.830078Z" fill="white"/>
</g>
</mask>
<g mask="url(#mask2_1_482)">
<g id="Group 96_3">
<path id="Path 147_3" d="M91.958 1.46106L93 4.68406C93.0596 4.86757 93.1758 5.02748 93.3319 5.14084C93.488 5.25421 93.676 5.3152 93.869 5.31506H97.258C97.4513 5.31418 97.6399 5.37461 97.7967 5.48767C97.9535 5.60073 98.0704 5.76059 98.1307 5.94428C98.1909 6.12797 98.1913 6.32603 98.1319 6.50998C98.0725 6.69393 97.9563 6.85431 97.8 6.96806L95.058 8.96006C94.9018 9.07353 94.7856 9.23353 94.7259 9.41712C94.6663 9.60072 94.6663 9.79848 94.726 9.98207L95.773 13.2041C95.8339 13.3878 95.8348 13.5862 95.7757 13.7705C95.7166 13.9548 95.6005 14.1156 95.4441 14.2298C95.2877 14.3439 95.0992 14.4054 94.9056 14.4054C94.712 14.4055 94.5234 14.3441 94.367 14.2301L91.626 12.2301C91.4699 12.1166 91.2819 12.0554 91.089 12.0554C90.896 12.0554 90.708 12.1166 90.552 12.2301L87.811 14.2301C87.6547 14.3462 87.4654 14.4093 87.2706 14.4103C87.0759 14.4113 86.886 14.3501 86.7285 14.2355C86.571 14.121 86.4542 13.9592 86.3951 13.7737C86.336 13.5881 86.3377 13.3886 86.4 13.2041L87.451 9.98207C87.5108 9.79858 87.5109 9.60089 87.4515 9.4173C87.392 9.23372 87.276 9.07366 87.12 8.96006L84.378 6.96806C84.222 6.85456 84.106 6.69464 84.0465 6.51117C83.9869 6.32771 83.987 6.13011 84.0466 5.94667C84.1061 5.76322 84.2222 5.60333 84.3782 5.48988C84.5342 5.37643 84.7221 5.31524 84.915 5.31506H88.3C88.493 5.31535 88.6811 5.25442 88.8372 5.14104C88.9934 5.02765 89.1095 4.86765 89.169 4.68406L90.22 1.46106C90.2798 1.27769 90.396 1.11792 90.5521 1.00463C90.7082 0.891335 90.8961 0.830322 91.089 0.830322C91.2819 0.830322 91.4698 0.891335 91.6259 1.00463C91.782 1.11792 91.8982 1.27769 91.958 1.46106Z" fill="#FF8000"/>
</g>
</g>
</g>
</g>
<g id="Group 98">
<g id="Clip path group_4">
<mask id="mask3_1_482" style="mask-type:luminance" maskUnits="userSpaceOnUse" x="21" y="0" width="15" height="15">
<g id="clip-path-15_4">
<path id="Rectangle 71_4" d="M35.178 0.830078H21V14.4041H35.178V0.830078Z" fill="white"/>
</g>
</mask>
<g mask="url(#mask3_1_482)">
<g id="Group 96_4">
<path id="Path 147_4" d="M28.958 1.46106L30 4.68406C30.0596 4.86757 30.1758 5.02748 30.3319 5.14084C30.488 5.25421 30.676 5.3152 30.869 5.31506H34.258C34.4513 5.31418 34.6399 5.37461 34.7967 5.48767C34.9535 5.60073 35.0704 5.76059 35.1307 5.94428C35.1909 6.12797 35.1913 6.32603 35.1319 6.50998C35.0725 6.69393 34.9563 6.85431 34.8 6.96806L32.058 8.96006C31.9018 9.07353 31.7856 9.23353 31.7259 9.41712C31.6663 9.60072 31.6663 9.79848 31.726 9.98207L32.773 13.2041C32.8339 13.3878 32.8348 13.5862 32.7757 13.7705C32.7166 13.9548 32.6005 14.1156 32.4441 14.2298C32.2877 14.3439 32.0992 14.4054 31.9056 14.4054C31.712 14.4055 31.5234 14.3441 31.367 14.2301L28.626 12.2301C28.4699 12.1166 28.2819 12.0554 28.089 12.0554C27.896 12.0554 27.708 12.1166 27.552 12.2301L24.811 14.2301C24.6547 14.3462 24.4654 14.4093 24.2706 14.4103C24.0759 14.4113 23.886 14.3501 23.7285 14.2355C23.571 14.121 23.4542 13.9592 23.3951 13.7737C23.336 13.5881 23.3377 13.3886 23.4 13.2041L24.451 9.98207C24.5108 9.79858 24.5109 9.60089 24.4515 9.4173C24.392 9.23372 24.276 9.07366 24.12 8.96006L21.378 6.96806C21.222 6.85456 21.106 6.69464 21.0465 6.51117C20.9869 6.32771 20.987 6.13011 21.0466 5.94667C21.1061 5.76322 21.2222 5.60333 21.3782 5.48988C21.5342 5.37643 21.7221 5.31524 21.915 5.31506H25.3C25.493 5.31535 25.6811 5.25442 25.8372 5.14104C25.9934 5.02765 26.1095 4.86765 26.169 4.68406L27.22 1.46106C27.2798 1.27769 27.396 1.11792 27.5521 1.00463C27.7082 0.891335 27.8961 0.830322 28.089 0.830322C28.2819 0.830322 28.4698 0.891335 28.6259 1.00463C28.782 1.11792 28.8982 1.27769 28.958 1.46106Z" fill="#FF8000"/>
</g>
</g>
</g>
</g>
<g id="Group 100">
<g id="Clip path group_5">
<mask id="mask4_1_482" style="mask-type:luminance" maskUnits="userSpaceOnUse" x="63" y="0" width="15" height="15">
<g id="clip-path-15_5">
<path id="Rectangle 71_5" d="M77.178 0.830078H63V14.4041H77.178V0.830078Z" fill="white"/>
</g>
</mask>
<g mask="url(#mask4_1_482)">
<g id="Group 96_5">
<path id="Path 147_5" d="M70.958 1.46106L72 4.68406C72.0596 4.86757 72.1758 5.02748 72.3319 5.14084C72.488 5.25421 72.676 5.3152 72.869 5.31506H76.258C76.4513 5.31418 76.6399 5.37461 76.7967 5.48767C76.9535 5.60073 77.0704 5.76059 77.1307 5.94428C77.1909 6.12797 77.1913 6.32603 77.1319 6.50998C77.0725 6.69393 76.9563 6.85431 76.8 6.96806L74.058 8.96006C73.9018 9.07353 73.7856 9.23353 73.7259 9.41712C73.6663 9.60072 73.6663 9.79848 73.726 9.98207L74.773 13.2041C74.8339 13.3878 74.8348 13.5862 74.7757 13.7705C74.7166 13.9548 74.6005 14.1156 74.4441 14.2298C74.2877 14.3439 74.0992 14.4054 73.9056 14.4054C73.712 14.4055 73.5234 14.3441 73.367 14.2301L70.626 12.2301C70.4699 12.1166 70.2819 12.0554 70.089 12.0554C69.896 12.0554 69.708 12.1166 69.552 12.2301L66.811 14.2301C66.6547 14.3462 66.4654 14.4093 66.2706 14.4103C66.0759 14.4113 65.886 14.3501 65.7285 14.2355C65.571 14.121 65.4542 13.9592 65.3951 13.7737C65.336 13.5881 65.3377 13.3886 65.4 13.2041L66.451 9.98207C66.5108 9.79858 66.5109 9.60089 66.4515 9.4173C66.392 9.23372 66.276 9.07366 66.12 8.96006L63.378 6.96806C63.222 6.85456 63.106 6.69464 63.0465 6.51117C62.9869 6.32771 62.987 6.13011 63.0466 5.94667C63.1061 5.76322 63.2222 5.60333 63.3782 5.48988C63.5342 5.37643 63.7221 5.31524 63.915 5.31506H67.3C67.493 5.31535 67.6811 5.25442 67.8372 5.14104C67.9934 5.02765 68.1095 4.86765 68.169 4.68406L69.22 1.46106C69.2798 1.27769 69.396 1.11792 69.5521 1.00463C69.7082 0.891335 69.8961 0.830322 70.089 0.830322C70.2819 0.830322 70.4698 0.891335 70.6259 1.00463C70.782 1.11792 70.8982 1.27769 70.958 1.46106Z" fill="#FF8000"/>
</g>
</g>
</g>
</g>
</g>
</svg>
